
<svg width="512" height="512" viewBox="0 0 512 512" xmlns="http://www.w3.org/2000/svg">
  <!-- Black background -->
  <rect width="512" height="512" fill="#000000"/>
  
  <!-- Green wallet -->
  <g transform="translate(80, 120)">
    <!-- Main wallet body -->
    <rect x="0" y="40" width="320" height="200" rx="20" ry="20" fill="#22c55e" stroke="#16a34a" stroke-width="4"/>
    
    <!-- Wallet flap -->
    <rect x="0" y="20" width="320" height="40" rx="20" ry="20" fill="#16a34a"/>
    
    <!-- Wallet clasp -->
    <rect x="280" y="0" width="60" height="80" rx="10" ry="10" fill="#15803d"/>
    
    <!-- Wallet handle -->
    <rect x="300" y="10" width="20" height="60" rx="10" ry="10" fill="#000000"/>
    
    <!-- Money bills sticking out -->
    <rect x="20" y="10" width="80" height="20" rx="2" ry="2" fill="#dcfce7"/>
    <rect x="30" y="5" width="80" height="20" rx="2" ry="2" fill="#bbf7d0"/>
    <rect x="40" y="0" width="80" height="20" rx="2" ry="2" fill="#86efac"/>
    
    <!-- Card slot -->
    <rect x="240" y="80" width="60" height="40" rx="5" ry="5" fill="#15803d"/>
    
    <!-- Coin pocket -->
    <circle cx="80" cy="160" r="30" fill="#16a34a"/>
    <circle cx="80" cy="160" r="20" fill="#22c55e"/>
    
    <!-- Dollar sign on coin -->
    <text x="80" y="170" text-anchor="middle" font-family="Arial, sans-serif" font-size="24" font-weight="bold" fill="#15803d">$</text>
  </g>
</svg>
